<svg id="Warstwa_1" data-name="Warstwa 1" xmlns="http://www.w3.org/2000/svg" viewBox="0 0 477.92 170.19"><defs><style>.cls-1{fill:#6764cb;}</style></defs><title>logo</title><path d="M398.67,414.5a85.1,85.1,0,1,0,85.09,85.09A85.19,85.19,0,0,0,398.67,414.5Zm0,162.59a77.5,77.5,0,1,1,77.49-77.5A77.58,77.58,0,0,1,398.67,577.09Z" transform="translate(-313.57 -414.5)"/><path d="M398.67,429.83a69.77,69.77,0,1,0,69.76,69.76A69.84,69.84,0,0,0,398.67,429.83Zm61.9,64.24-31.51,16.22,3.17-63A62.17,62.17,0,0,1,460.57,494.07Zm-86,17.5,1.26-26.45L400,472.8l22.63,14.69-1.35,26.83L397.58,526.5Zm50.22-68.35L423,478.72l-52.89-34.34a62,62,0,0,1,54.68-1.16Zm-61.89,5.54L392.61,468l-56,28.66A62.13,62.13,0,0,1,362.94,448.76Zm-26.18,56.36,31.31-16-3,62.75A62.22,62.22,0,0,1,336.76,505.12ZM372.49,556l1.7-35.6,53,34.44A61.93,61.93,0,0,1,372.49,556Zm61.9-5.54-29.47-19.15,55.84-28.75A62.14,62.14,0,0,1,434.39,550.42Z" transform="translate(-313.57 -414.5)"/><path d="M526.13,510.05a24.26,24.26,0,0,1-8.36-4.33l3-6.47a25.76,25.76,0,0,0,7.46,4,27.45,27.45,0,0,0,8.5,1.27c3.4,0,6-.6,7.88-1.79a5.65,5.65,0,0,0,2.79-5,4.65,4.65,0,0,0-2.58-4.24,32.69,32.69,0,0,0-8.5-2.78q-9.23-2-13.42-5.17t-4.2-9.22a13.2,13.2,0,0,1,2.34-7.71,15.66,15.66,0,0,1,6.64-5.29,24.07,24.07,0,0,1,9.95-1.93,30.8,30.8,0,0,1,9.8,1.55,20.38,20.38,0,0,1,7.61,4.3l-3,6.47a22.59,22.59,0,0,0-14.45-5.23,12.67,12.67,0,0,0-7.5,2,6.2,6.2,0,0,0-2.76,5.33,4.88,4.88,0,0,0,2.45,4.41q2.43,1.51,8.36,2.82a59.83,59.83,0,0,1,10,3.13,14.78,14.78,0,0,1,5.91,4.33,10.49,10.49,0,0,1,2.07,6.65,12.84,12.84,0,0,1-2.34,7.67,15,15,0,0,1-6.74,5.06,27.6,27.6,0,0,1-10.4,1.79A35.7,35.7,0,0,1,526.13,510.05Z" transform="translate(-313.57 -414.5)"/><path d="M597.05,476.19V511h-8.47v-5.58a11.14,11.14,0,0,1-4.54,4.51,13.8,13.8,0,0,1-6.74,1.62,14.78,14.78,0,0,1-8-2.21,14.45,14.45,0,0,1-5.44-6.26,21.65,21.65,0,0,1-1.93-9.42,22.28,22.28,0,0,1,2-9.54,15.43,15.43,0,0,1,5.47-6.47,14.27,14.27,0,0,1,8-2.3,13.8,13.8,0,0,1,6.74,1.62,11.18,11.18,0,0,1,4.54,4.5v-5.23Zm-10.81,25.6q2.34-3,2.34-8.32T586.24,485a8,8,0,0,0-6.67-3,7.89,7.89,0,0,0-6.64,3.07q-2.38,3.06-2.38,8.5c0,3.57.79,6.33,2.38,8.25a8.18,8.18,0,0,0,6.71,2.89A7.91,7.91,0,0,0,586.24,501.79Z" transform="translate(-313.57 -414.5)"/><path d="M638.75,489.61V511h-8.6V490c0-2.76-.53-4.76-1.58-6a6,6,0,0,0-4.89-1.89,8.37,8.37,0,0,0-6.33,2.51,9.2,9.2,0,0,0-2.41,6.65V511h-8.53V486a80.32,80.32,0,0,0-.55-9.85h8l.62,5.72a12.6,12.6,0,0,1,4.85-4.89,13.84,13.84,0,0,1,6.91-1.72Q638.76,475.3,638.75,489.61Z" transform="translate(-313.57 -414.5)"/><path d="M658.85,482.66v15.56q0,6.12,5.71,6.12a12.09,12.09,0,0,0,3.44-.55v6.81a16.22,16.22,0,0,1-5.51.83q-5.91,0-9.08-3.31t-3.17-9.49v-16h-6.67v-6.47h6.67v-8.46l8.61-2.89v11.35h9.22v6.47Z" transform="translate(-313.57 -414.5)"/><path d="M707.22,476.19V511h-8.46v-5.58a11.14,11.14,0,0,1-4.54,4.51,13.81,13.81,0,0,1-6.75,1.62,14.83,14.83,0,0,1-8.05-2.21A14.43,14.43,0,0,1,674,503a21.65,21.65,0,0,1-1.93-9.42,22.13,22.13,0,0,1,2-9.54,15.43,15.43,0,0,1,5.47-6.47,14.26,14.26,0,0,1,8-2.3,13.81,13.81,0,0,1,6.75,1.62,11.18,11.18,0,0,1,4.54,4.5v-5.23Zm-10.8,25.6q2.34-3,2.34-8.32T696.42,485a8,8,0,0,0-6.67-3,7.93,7.93,0,0,0-6.65,3.07q-2.37,3.06-2.37,8.5c0,3.57.79,6.33,2.37,8.25a8.2,8.2,0,0,0,6.71,2.89A7.92,7.92,0,0,0,696.42,501.79Z" transform="translate(-313.57 -414.5)"/><path d="M748.93,489.61V511h-8.6V490c0-2.76-.53-4.76-1.59-6a6,6,0,0,0-4.88-1.89,8.37,8.37,0,0,0-6.33,2.51,9.2,9.2,0,0,0-2.41,6.65V511h-8.54V486a78.39,78.39,0,0,0-.55-9.85h8.05l.62,5.72a12.62,12.62,0,0,1,4.86-4.89,13.81,13.81,0,0,1,6.91-1.72Q748.94,475.3,748.93,489.61Z" transform="translate(-313.57 -414.5)"/><path d="M791.32,476.19V511h-8.46v-5.58a11.17,11.17,0,0,1-4.55,4.51,13.8,13.8,0,0,1-6.74,1.62,14.81,14.81,0,0,1-8.05-2.21,14.51,14.51,0,0,1-5.44-6.26,21.8,21.8,0,0,1-1.93-9.42,22.13,22.13,0,0,1,2-9.54,15.35,15.35,0,0,1,5.47-6.47,14.26,14.26,0,0,1,8-2.3,13.8,13.8,0,0,1,6.74,1.62,11.2,11.2,0,0,1,4.55,4.5v-5.23Zm-10.8,25.6q2.34-3,2.34-8.32T780.52,485a8,8,0,0,0-6.68-3,7.91,7.91,0,0,0-6.64,3.07q-2.37,3.06-2.37,8.5c0,3.57.79,6.33,2.37,8.25a8.18,8.18,0,0,0,6.71,2.89A7.93,7.93,0,0,0,780.52,501.79Z" transform="translate(-313.57 -414.5)"/><path class="cls-1" d="M522.88,522.11h6.06a5.42,5.42,0,0,1,3.65,1.13,3.87,3.87,0,0,1,1.32,3.11,3.92,3.92,0,0,1-1.33,3.13,5.38,5.38,0,0,1-3.64,1.14h-4.31v6.68h-1.75Zm5.91,7.06a3.82,3.82,0,0,0,2.53-.72,2.62,2.62,0,0,0,.86-2.1,2.54,2.54,0,0,0-.86-2.07,3.82,3.82,0,0,0-2.53-.72h-4.16v5.61Z" transform="translate(-313.57 -414.5)"/><path class="cls-1" d="M556.13,522.11h1.75V537.3h-1.75v-7H547v7H545.3V522.11H547v6.74h9.11Z" transform="translate(-313.57 -414.5)"/><path class="cls-1" d="M572.86,536.53a6.2,6.2,0,0,1-2.4-2.7,10.52,10.52,0,0,1,0-8.26,6,6,0,0,1,2.39-2.69,7.71,7.71,0,0,1,7.38,0,6.15,6.15,0,0,1,2.39,2.69,10.61,10.61,0,0,1,0,8.25,6.32,6.32,0,0,1-2.4,2.7,7.6,7.6,0,0,1-7.34,0Zm7.42-2.2a8.73,8.73,0,0,0,0-9.28,4.6,4.6,0,0,0-3.76-1.62,4.64,4.64,0,0,0-3.78,1.63,8.69,8.69,0,0,0,0,9.27,5.14,5.14,0,0,0,7.53,0Z" transform="translate(-313.57 -414.5)"/><path class="cls-1" d="M597.9,537.3V523.6h-5.29v-1.49H605v1.49h-5.29v13.7Z" transform="translate(-313.57 -414.5)"/><path class="cls-1" d="M617.38,536.53a6.2,6.2,0,0,1-2.4-2.7,10.52,10.52,0,0,1,0-8.26,6,6,0,0,1,2.39-2.69,7.71,7.71,0,0,1,7.38,0,6.15,6.15,0,0,1,2.39,2.69,10.61,10.61,0,0,1,0,8.25,6.32,6.32,0,0,1-2.4,2.7,7.6,7.6,0,0,1-7.34,0Zm7.42-2.2a8.73,8.73,0,0,0,0-9.28,4.6,4.6,0,0,0-3.76-1.62,4.64,4.64,0,0,0-3.78,1.63,8.69,8.69,0,0,0,0,9.27,5.14,5.14,0,0,0,7.53,0Z" transform="translate(-313.57 -414.5)"/><path class="cls-1" d="M651.7,529.38v7a8.53,8.53,0,0,1-2.35.76,15.19,15.19,0,0,1-2.94.29,7.76,7.76,0,0,1-3.9-.93,6.09,6.09,0,0,1-2.51-2.68,10.52,10.52,0,0,1,0-8.33,6.24,6.24,0,0,1,2.47-2.66,7.52,7.52,0,0,1,3.81-.93,8.54,8.54,0,0,1,2.93.48,6.15,6.15,0,0,1,2.3,1.44l-.69,1.34a7.72,7.72,0,0,0-2.16-1.35,6.39,6.39,0,0,0-2.38-.42,4.94,4.94,0,0,0-4,1.61,8.56,8.56,0,0,0,0,9.35,5.14,5.14,0,0,0,4.09,1.61,11.18,11.18,0,0,0,3.65-.6v-4.63h-3.78v-1.39Z" transform="translate(-313.57 -414.5)"/><path class="cls-1" d="M675.74,537.3h-1.86L672,532.24a2.25,2.25,0,0,0-1-1.26,3.82,3.82,0,0,0-1.72-.32h-3.8v6.64h-1.72V522.11h6a5.74,5.74,0,0,1,3.77,1.09,3.84,3.84,0,0,1,1.31,3.13,4,4,0,0,1-.78,2.51,4.17,4.17,0,0,1-2.25,1.44,2.06,2.06,0,0,1,1.13.56,3.61,3.61,0,0,1,.79,1.32Zm-6-8.09c2.34,0,3.5-1,3.5-2.86a2.56,2.56,0,0,0-.85-2.1,4.18,4.18,0,0,0-2.65-.69h-4.16v5.65Z" transform="translate(-313.57 -414.5)"/><path class="cls-1" d="M698.61,537.3l-1.67-3.91H689l-1.69,3.91h-1.81l6.68-15.19h1.53l6.68,15.19Zm-9-5.36h6.7l-3.35-7.8Z" transform="translate(-313.57 -414.5)"/><path class="cls-1" d="M711.19,522.11h6.06a5.43,5.43,0,0,1,3.66,1.13,3.87,3.87,0,0,1,1.31,3.11,3.91,3.91,0,0,1-1.32,3.13,5.41,5.41,0,0,1-3.65,1.14h-4.31v6.68h-1.75Zm5.91,7.06a3.85,3.85,0,0,0,2.54-.72,2.62,2.62,0,0,0,.85-2.1,2.54,2.54,0,0,0-.85-2.07,3.85,3.85,0,0,0-2.54-.72h-4.16v5.61Z" transform="translate(-313.57 -414.5)"/><path class="cls-1" d="M744.45,522.11h1.75V537.3h-1.75v-7h-9.11v7h-1.73V522.11h1.73v6.74h9.11Z" transform="translate(-313.57 -414.5)"/><path class="cls-1" d="M758.49,537.3V522.11h9.59v1.45h-7.87v5.29h7.45v1.47h-7.45v5.53h7.87v1.45Z" transform="translate(-313.57 -414.5)"/><path class="cls-1" d="M791.49,537.3h-1.86l-1.88-5.06a2.17,2.17,0,0,0-1-1.26,3.74,3.74,0,0,0-1.71-.32h-3.8v6.64h-1.73V522.11h6a5.71,5.71,0,0,1,3.76,1.09,3.82,3.82,0,0,1,1.32,3.13,4,4,0,0,1-.78,2.51,4.17,4.17,0,0,1-2.25,1.44,2.09,2.09,0,0,1,1.13.56,3.76,3.76,0,0,1,.79,1.32Zm-6-8.09q3.49,0,3.5-2.86a2.57,2.57,0,0,0-.86-2.1,4.15,4.15,0,0,0-2.64-.69h-4.16v5.65Z" transform="translate(-313.57 -414.5)"/></svg>