<svg id="Capa_1" data-name="Capa 1" xmlns="http://www.w3.org/2000/svg" viewBox="0 0 430.12 267.63"><title>sm-b</title><path id="Behance" d="M388.43,119.12H280.66V92.35H388.44v26.77ZM208.91,228.9q10.44,16.15,10.43,39.2c0,15.88-3.92,30.12-11.89,42.7a74,74,0,0,1-18.93,21,73.17,73.17,0,0,1-30.2,13.44,187,187,0,0,1-37.79,3.62H0V81.25H129.25c32.58.53,55.68,10,69.32,28.5q12.27,17.06,12.23,40.87c0,16.36-4.1,29.45-12.36,39.4q-6.9,8.37-20.38,15.23C191.68,210.24,202,218.09,208.91,228.9ZM61.72,186.76h56.63c11.64,0,21.05-2.21,28.3-6.63s10.85-12.27,10.85-23.54c0-12.44-4.78-20.71-14.38-24.68-8.24-2.77-18.79-4.19-31.59-4.19H61.72ZM163,264.27c0-13.9-5.68-23.51-17-28.67-6.34-2.93-15.29-4.42-26.76-4.53H61.72v71.32h56.56c11.62,0,20.61-1.52,27.1-4.69C157.08,291.86,163,280.76,163,264.27Zm265.47-43.53c1.3,8.75,1.89,21.46,1.65,38.06H290.49q1.15,28.9,20,40.45c7.61,4.83,16.83,7.2,27.63,7.2,11.39,0,20.67-2.88,27.81-8.8a41.85,41.85,0,0,0,10.3-13.15h51.16c-1.34,11.38-7.5,22.92-18.57,34.65q-25.73,28-72.1,28-38.28,0-67.53-23.59T240,246.75q0-49.89,26.38-76.43c17.67-17.75,40.47-26.59,68.58-26.59q25,0,45.08,9t33.09,28.38C421,192.5,426.06,205.7,428.42,220.74Zm-50.36,5q-1.41-20-13.39-30.3T335,185.05c-12.88,0-22.83,3.71-29.9,11s-11.55,17.16-13.37,29.68Z" transform="translate(0 -81.25)"/></svg>